<svg width="32" height="32" viewBox="0 0 32 32" fill="none" xmlns="http://www.w3.org/2000/svg">
<path d="M28 28V9L19 0H8C6.93913 0 5.92172 0.421427 5.17157 1.17157C4.42143 1.92172 4 2.93913 4 4V28C4 29.0609 4.42143 30.0783 5.17157 30.8284C5.92172 31.5786 6.93913 32 8 32H24C25.0609 32 26.0783 31.5786 26.8284 30.8284C27.5786 30.0783 28 29.0609 28 28ZM19 6C19 6.79565 19.3161 7.55871 19.8787 8.12132C20.4413 8.68393 21.2044 9 22 9H26V28C26 28.5304 25.7893 29.0391 25.4142 29.4142C25.0391 29.7893 24.5304 30 24 30H8C7.46957 30 6.96086 29.7893 6.58579 29.4142C6.21071 29.0391 6 28.5304 6 28V4C6 3.46957 6.21071 2.96086 6.58579 2.58579C6.96086 2.21071 7.46957 2 8 2H19V6Z" fill="white"/>
<path d="M9.206 28.1741C8.81619 28.0182 8.50213 27.717 8.33 27.3341C7.94 26.5581 8.07 25.7821 8.49 25.1301C8.886 24.5161 9.54201 23.9941 10.284 23.5561C11.2239 23.023 12.2174 22.5906 13.248 22.2661C14.0484 20.8272 14.7578 19.3397 15.372 17.8121C15.0048 16.9776 14.7168 16.1105 14.512 15.2221C14.34 14.4221 14.274 13.6301 14.42 12.9501C14.57 12.2421 14.968 11.6061 15.72 11.3041C16.104 11.1501 16.52 11.0641 16.924 11.1501C17.1272 11.1933 17.3183 11.2813 17.4833 11.4075C17.6483 11.5338 17.7831 11.6952 17.878 11.8801C18.054 12.2081 18.118 12.5921 18.132 12.9561C18.146 13.3321 18.108 13.7481 18.038 14.1841C17.87 15.2041 17.498 16.4521 16.998 17.7721C17.5498 18.9521 18.2057 20.0806 18.958 21.1441C19.8482 21.0737 20.7436 21.1073 21.626 21.2441C22.354 21.3761 23.094 21.6341 23.546 22.1741C23.786 22.4621 23.932 22.8141 23.946 23.2101C23.96 23.5941 23.852 23.9741 23.67 24.3361C23.5124 24.6715 23.2679 24.9588 22.962 25.1681C22.6596 25.3653 22.3026 25.4619 21.942 25.4441C21.28 25.4161 20.634 25.0521 20.076 24.6101C19.3975 24.0491 18.7861 23.4115 18.254 22.7101C16.9015 22.8636 15.5651 23.1353 14.26 23.5221C13.6624 24.582 12.9801 25.5919 12.22 26.5421C11.636 27.2421 11.002 27.8541 10.366 28.1161C10.0006 28.2814 9.5861 28.3021 9.206 28.1741ZM11.964 24.3721C11.632 24.5241 11.324 24.6841 11.046 24.8481C10.39 25.2361 9.964 25.6141 9.752 25.9421C9.564 26.2321 9.56 26.4421 9.672 26.6641C9.692 26.7081 9.712 26.7361 9.724 26.7521C9.74787 26.7457 9.77126 26.7377 9.794 26.7281C10.068 26.6161 10.504 26.2581 11.064 25.5841C11.3825 25.1941 11.6828 24.7897 11.964 24.3721ZM15.244 21.7121C15.9119 21.5562 16.5857 21.4274 17.264 21.3261C16.8998 20.7688 16.5595 20.1963 16.244 19.6101C15.9303 20.3192 15.5968 21.0195 15.244 21.7101V21.7121ZM20.136 22.6121C20.436 22.9381 20.728 23.2121 21.006 23.4321C21.486 23.8121 21.82 23.9381 22.002 23.9441C22.0507 23.9504 22.1002 23.9398 22.142 23.9141C22.2252 23.8484 22.29 23.7622 22.33 23.6641C22.4011 23.5422 22.4416 23.405 22.448 23.2641C22.4469 23.2171 22.4283 23.1722 22.396 23.1381C22.292 23.0141 21.996 22.8341 21.36 22.7201C20.9555 22.6524 20.5462 22.617 20.136 22.6141V22.6121ZM16.156 15.6001C16.3243 15.0571 16.4579 14.504 16.556 13.9441C16.618 13.5681 16.642 13.2581 16.632 13.0141C16.6326 12.8794 16.6109 12.7457 16.568 12.6181C16.468 12.6304 16.3703 12.6574 16.278 12.6981C16.104 12.7681 15.962 12.9101 15.886 13.2641C15.806 13.6481 15.826 14.2021 15.978 14.9081C16.026 15.1301 16.086 15.3621 16.158 15.6001H16.156Z" fill="white"/>
</svg>
